<mxfile host="app.diagrams.net" modified="2022-07-24T13:37:02.038Z" agent="5.0 (Macintosh; Intel Mac OS X 10_15_7) AppleWebKit/537.36 (KHTML, like Gecko) Chrome/103.0.0.0 Safari/537.36" etag="SfH3gycie8ePSJoWLaRt" version="20.2.0" type="github">
  <diagram id="TU3C9rA9yKXDdmbY8yXn" name="第 1 页">
    <mxGraphModel dx="792" dy="625" grid="1" gridSize="10" guides="1" tooltips="1" connect="1" arrows="1" fold="1" page="1" pageScale="1" pageWidth="827" pageHeight="1169" math="0" shadow="0">
      <root>
        <mxCell id="0" />
        <mxCell id="1" parent="0" />
        <mxCell id="WW7-bAp97DxXTBkDJd1--11" style="edgeStyle=orthogonalEdgeStyle;rounded=0;orthogonalLoop=1;jettySize=auto;html=1;fontSize=22;fontColor=#FFFFFF;strokeWidth=2;" edge="1" parent="1" source="WW7-bAp97DxXTBkDJd1--1">
          <mxGeometry relative="1" as="geometry">
            <mxPoint x="610" y="215" as="targetPoint" />
          </mxGeometry>
        </mxCell>
        <mxCell id="WW7-bAp97DxXTBkDJd1--12" style="edgeStyle=orthogonalEdgeStyle;rounded=0;orthogonalLoop=1;jettySize=auto;html=1;exitX=1;exitY=0.5;exitDx=0;exitDy=0;entryX=0;entryY=0.5;entryDx=0;entryDy=0;fontSize=22;fontColor=#FFFFFF;strokeWidth=2;" edge="1" parent="1" source="WW7-bAp97DxXTBkDJd1--1" target="WW7-bAp97DxXTBkDJd1--2">
          <mxGeometry relative="1" as="geometry" />
        </mxCell>
        <mxCell id="WW7-bAp97DxXTBkDJd1--1" value="&lt;b style=&quot;color: rgb(255, 255, 255); font-size: 22px;&quot;&gt;Level A Queue&lt;/b&gt;" style="rounded=1;whiteSpace=wrap;html=1;fillColor=#fa6800;strokeColor=#C73500;fontColor=#000000;" vertex="1" parent="1">
          <mxGeometry x="220" y="190" width="310" height="50" as="geometry" />
        </mxCell>
        <mxCell id="WW7-bAp97DxXTBkDJd1--13" style="edgeStyle=orthogonalEdgeStyle;rounded=0;orthogonalLoop=1;jettySize=auto;html=1;fontSize=22;fontColor=#FFFFFF;strokeWidth=2;" edge="1" parent="1" source="WW7-bAp97DxXTBkDJd1--2">
          <mxGeometry relative="1" as="geometry">
            <mxPoint x="610" y="325" as="targetPoint" />
          </mxGeometry>
        </mxCell>
        <mxCell id="WW7-bAp97DxXTBkDJd1--16" style="edgeStyle=orthogonalEdgeStyle;rounded=0;orthogonalLoop=1;jettySize=auto;html=1;entryX=0;entryY=0.5;entryDx=0;entryDy=0;fontSize=22;fontColor=#FFFFFF;strokeWidth=2;" edge="1" parent="1" source="WW7-bAp97DxXTBkDJd1--2" target="WW7-bAp97DxXTBkDJd1--3">
          <mxGeometry relative="1" as="geometry">
            <Array as="points">
              <mxPoint x="550" y="325" />
              <mxPoint x="550" y="380" />
              <mxPoint x="200" y="380" />
              <mxPoint x="200" y="435" />
            </Array>
          </mxGeometry>
        </mxCell>
        <mxCell id="WW7-bAp97DxXTBkDJd1--2" value="&lt;b style=&quot;font-size: 22px;&quot;&gt;Level B Queue&lt;/b&gt;" style="rounded=1;whiteSpace=wrap;html=1;fillColor=#e51400;strokeColor=#B20000;fontColor=#ffffff;" vertex="1" parent="1">
          <mxGeometry x="220" y="300" width="310" height="50" as="geometry" />
        </mxCell>
        <mxCell id="WW7-bAp97DxXTBkDJd1--15" style="edgeStyle=orthogonalEdgeStyle;rounded=0;orthogonalLoop=1;jettySize=auto;html=1;fontSize=22;fontColor=#FFFFFF;strokeWidth=2;" edge="1" parent="1" source="WW7-bAp97DxXTBkDJd1--3">
          <mxGeometry relative="1" as="geometry">
            <mxPoint x="610" y="435" as="targetPoint" />
          </mxGeometry>
        </mxCell>
        <mxCell id="WW7-bAp97DxXTBkDJd1--17" style="edgeStyle=orthogonalEdgeStyle;rounded=0;orthogonalLoop=1;jettySize=auto;html=1;entryX=0;entryY=0.5;entryDx=0;entryDy=0;fontSize=22;fontColor=#FFFFFF;strokeWidth=2;" edge="1" parent="1" source="WW7-bAp97DxXTBkDJd1--3" target="WW7-bAp97DxXTBkDJd1--1">
          <mxGeometry relative="1" as="geometry">
            <Array as="points">
              <mxPoint x="180" y="435" />
              <mxPoint x="180" y="215" />
            </Array>
          </mxGeometry>
        </mxCell>
        <mxCell id="WW7-bAp97DxXTBkDJd1--3" value="&lt;b style=&quot;font-size: 22px;&quot;&gt;Level C Queue&lt;/b&gt;" style="rounded=1;whiteSpace=wrap;html=1;fillColor=#60a917;strokeColor=#2D7600;fontColor=#ffffff;" vertex="1" parent="1">
          <mxGeometry x="220" y="410" width="310" height="50" as="geometry" />
        </mxCell>
        <mxCell id="WW7-bAp97DxXTBkDJd1--4" value="&lt;b style=&quot;&quot;&gt;&lt;font color=&quot;#ffffff&quot;&gt;Scheduler&lt;br&gt;A&lt;/font&gt;&lt;/b&gt;" style="ellipse;whiteSpace=wrap;html=1;aspect=fixed;fillColor=#fa6800;fontColor=#000000;strokeColor=#C73500;" vertex="1" parent="1">
          <mxGeometry x="620" y="177.5" width="65" height="65" as="geometry" />
        </mxCell>
        <mxCell id="WW7-bAp97DxXTBkDJd1--7" value="&lt;b style=&quot;&quot;&gt;Scheduler&lt;br&gt;B&lt;br&gt;&lt;/b&gt;" style="ellipse;whiteSpace=wrap;html=1;aspect=fixed;fillColor=#e51400;fontColor=#ffffff;strokeColor=#B20000;" vertex="1" parent="1">
          <mxGeometry x="620" y="287.5" width="65" height="65" as="geometry" />
        </mxCell>
        <mxCell id="WW7-bAp97DxXTBkDJd1--8" value="&lt;b style=&quot;&quot;&gt;Scheduler&lt;br&gt;C&lt;br&gt;&lt;/b&gt;" style="ellipse;whiteSpace=wrap;html=1;aspect=fixed;fillColor=#60a917;fontColor=#ffffff;strokeColor=#2D7600;" vertex="1" parent="1">
          <mxGeometry x="620" y="397.5" width="65" height="65" as="geometry" />
        </mxCell>
        <mxCell id="WW7-bAp97DxXTBkDJd1--9" value="" style="shape=image;html=1;verticalAlign=top;verticalLabelPosition=bottom;labelBackgroundColor=#ffffff;imageAspect=0;aspect=fixed;image=https://cdn0.iconfinder.com/data/icons/phosphor-light-vol-2/256/cpu-light-128.png;fontSize=12;fontColor=#FFFFFF;strokeWidth=1;imageBackground=none;sketch=0;" vertex="1" parent="1">
          <mxGeometry x="740" y="285" width="70" height="70" as="geometry" />
        </mxCell>
        <mxCell id="WW7-bAp97DxXTBkDJd1--10" value="" style="shape=curlyBracket;whiteSpace=wrap;html=1;rounded=1;flipH=1;fontSize=12;fontColor=#FFFFFF;strokeWidth=2;" vertex="1" parent="1">
          <mxGeometry x="710" y="200" width="20" height="240" as="geometry" />
        </mxCell>
        <mxCell id="WW7-bAp97DxXTBkDJd1--18" value="" style="endArrow=classic;html=1;rounded=0;fontSize=22;fontColor=#FFFFFF;strokeWidth=2;fillColor=#e51400;strokeColor=#B20000;" edge="1" parent="1">
          <mxGeometry width="50" height="50" relative="1" as="geometry">
            <mxPoint x="136" y="170" as="sourcePoint" />
            <mxPoint x="136" y="480" as="targetPoint" />
          </mxGeometry>
        </mxCell>
        <mxCell id="WW7-bAp97DxXTBkDJd1--20" value="&lt;b&gt;Priority&lt;/b&gt;" style="text;html=1;align=center;verticalAlign=middle;resizable=0;points=[];autosize=1;strokeColor=none;fillColor=none;fontSize=22;fontColor=#000000;" vertex="1" parent="1">
          <mxGeometry x="85" y="130" width="100" height="40" as="geometry" />
        </mxCell>
      </root>
    </mxGraphModel>
  </diagram>
</mxfile>
